<svg width="309" height="59" viewBox="0 0 309 59" fill="none" xmlns="http://www.w3.org/2000/svg">
<g clip-path="url(#clip0_43_2)">
<path d="M23.1588 30.9109C17.6135 27.8434 14.6537 23.3697 14.2795 17.4899C13.8968 11.4854 16.7885 5.79549 21.781 2.58909C30.6092 -3.10078 42.0485 0.990146 45.6036 10.924C48.0814 17.8585 46.3974 23.8659 40.5516 28.9462C39.6416 29.7372 38.1277 30.341 37.022 31.132C36.8065 31.2851 36.6988 31.4921 36.6988 31.7529V56.8342C36.6988 58.025 36.1006 58.6203 34.9042 58.6203H23.1078C22.6527 58.6211 22.212 58.461 21.8634 58.1685C21.5148 57.8759 21.2808 57.4697 21.2026 57.0214C21.0155 55.9837 21.2281 55.0255 21.8405 54.1467C22.0106 53.9028 21.9993 53.6704 21.8065 53.4492C20.6668 52.1451 20.7008 50.9204 21.9085 49.7751C22.175 49.5199 22.1665 49.2733 21.883 49.0351C20.6583 47.9975 20.664 46.8125 21.9 45.48C21.9855 45.3844 22.0329 45.2614 22.0329 45.1353C22.0329 45.0092 21.9855 44.8894 21.9 44.7996C20.7433 43.5862 20.732 42.3246 21.866 41.0149C22.0475 40.8051 22.0475 40.5925 21.866 40.377C20.7547 39.0899 20.7462 37.7773 21.8405 36.4392C22.0276 36.2124 22.0191 35.9912 21.815 35.7758C20.233 34.1173 21.1601 32.0676 23.1418 31.2596C23.3913 31.1575 23.3969 31.0413 23.1588 30.9109ZM45.0167 16.3247C45.0167 12.4382 43.4728 8.71085 40.7246 5.96266C37.9764 3.21447 34.2491 1.67055 30.3626 1.67055C26.476 1.67055 22.7487 3.21447 20.0005 5.96266C17.2523 8.71085 15.7084 12.4382 15.7084 16.3247C15.7084 18.2492 16.0874 20.1547 16.8238 21.9327C17.5603 23.7106 18.6397 25.326 20.0005 26.6868C22.7487 29.435 26.476 30.9789 30.3626 30.9789C32.287 30.9789 34.1925 30.5999 35.9705 29.8634C37.7484 29.127 39.3639 28.0476 40.7246 26.6868C42.0854 25.326 43.1648 23.7106 43.9013 21.9327C44.6377 20.1547 45.0167 18.2492 45.0167 16.3247ZM35.1824 33.3136C35.1821 33.2264 35.1648 33.1402 35.1312 33.0598C35.0977 32.9794 35.0486 32.9064 34.9869 32.845C34.9251 32.7835 34.8518 32.7348 34.7713 32.7017C34.6907 32.6686 34.6044 32.6516 34.5173 32.6519L23.4777 32.691C23.3906 32.6912 23.3044 32.7086 23.224 32.7421C23.1436 32.7757 23.0706 32.8247 23.0091 32.8865C22.9477 32.9483 22.899 33.0215 22.8659 33.1021C22.8327 33.1827 22.8158 33.269 22.816 33.3561L22.8211 34.6488C22.8214 34.736 22.8387 34.8222 22.8723 34.9026C22.9058 34.983 22.9549 35.056 23.0166 35.1174C23.0784 35.1789 23.1517 35.2276 23.2322 35.2607C23.3128 35.2938 23.3991 35.3108 23.4862 35.3105L34.5258 35.2714C34.6129 35.2712 34.6991 35.2538 34.7795 35.2203C34.8599 35.1867 34.9329 35.1377 34.9944 35.0759C35.0558 35.0141 35.1045 34.9409 35.1376 34.8603C35.1708 34.7798 35.1877 34.6934 35.1875 34.6063L35.1824 33.3136ZM35.1594 39.2458L35.1764 37.3407C35.1764 37.2392 35.1361 37.1418 35.0643 37.0701C34.9925 36.9983 34.8952 36.958 34.7937 36.958L23.8222 36.8814C23.649 36.8802 23.4772 36.9091 23.3168 36.9666C23.1563 37.024 23.0103 37.1089 22.8871 37.2163C22.7639 37.3237 22.6659 37.4516 22.5987 37.5926C22.5314 37.7336 22.4963 37.885 22.4954 38.0381V38.3783C22.4934 38.6872 22.6303 38.9843 22.8759 39.2044C23.1215 39.4244 23.4557 39.5495 23.8052 39.552L34.7767 39.6286C34.8782 39.6286 34.9755 39.5882 35.0473 39.5164C35.1191 39.4447 35.1594 39.3473 35.1594 39.2458ZM35.2598 41.8458C35.2595 41.6948 35.1994 41.5501 35.0926 41.4434C34.9857 41.3367 34.8409 41.2768 34.6899 41.2768L23.3782 41.2972C23.2271 41.2972 23.0821 41.3573 22.9753 41.4641C22.8684 41.571 22.8084 41.7159 22.8084 41.8671L22.8118 43.381C22.8118 43.5321 22.8718 43.677 22.9787 43.7839C23.0855 43.8908 23.2305 43.9508 23.3816 43.9508L34.6933 43.9304C34.8445 43.9304 34.9894 43.8704 35.0963 43.7635C35.2031 43.6566 35.2632 43.5117 35.2632 43.3606L35.2598 41.8458ZM35.253 46.3475C35.253 46.1558 35.1768 45.9719 35.0412 45.8363C34.9056 45.7008 34.7218 45.6246 34.53 45.6246H23.5245C23.3328 45.6246 23.1489 45.7008 23.0133 45.8363C22.8777 45.9719 22.8016 46.1558 22.8016 46.3475V47.6743C22.8016 47.8661 22.8777 48.0499 23.0133 48.1855C23.1489 48.3211 23.3328 48.3972 23.5245 48.3972H34.53C34.7218 48.3972 34.9056 48.3211 35.0412 48.1855C35.1768 48.0499 35.253 47.8661 35.253 47.6743V46.3475ZM35.1424 52.3946L35.1594 50.4895C35.1594 50.388 35.1191 50.2906 35.0473 50.2189C34.9755 50.1471 34.8782 50.1068 34.7767 50.1068L24.1028 50.0472C23.8927 50.0459 23.6844 50.077 23.4899 50.1387C23.2953 50.2004 23.1184 50.2916 22.9691 50.4069C22.8198 50.5222 22.7011 50.6595 22.6198 50.8108C22.5386 50.9622 22.4963 51.1247 22.4954 51.289V51.4591C22.4936 51.7904 22.6601 52.1091 22.9583 52.3451C23.2565 52.5811 23.6621 52.7152 24.0858 52.7178L34.7597 52.7773C34.8612 52.7773 34.9585 52.737 35.0303 52.6652C35.1021 52.5935 35.1424 52.4961 35.1424 52.3946ZM35.2938 55.1962C35.2929 54.9866 35.2088 54.7858 35.06 54.6382C34.9112 54.4905 34.7099 54.4079 34.5003 54.4086L23.6138 54.446C23.5099 54.4464 23.407 54.4672 23.3111 54.5073C23.2152 54.5474 23.1282 54.606 23.0549 54.6798C22.9817 54.7536 22.9238 54.8411 22.8844 54.9373C22.845 55.0334 22.8249 55.1365 22.8254 55.2404L22.8288 56.278C22.8297 56.4876 22.9138 56.6884 23.0626 56.836C23.2113 56.9837 23.4127 57.0663 23.6223 57.0656L34.5088 57.0282C34.6127 57.0278 34.7156 57.007 34.8115 56.9669C34.9073 56.9268 34.9944 56.8682 35.0676 56.7944C35.1408 56.7206 35.1988 56.6331 35.2382 56.5369C35.2776 56.4408 35.2976 56.3377 35.2972 56.2338L35.2938 55.1962Z" fill="white"/>
<path d="M34.8447 3.6012L34.6916 3.44811C34.6632 3.41976 34.6321 3.41692 34.598 3.4396L30.5837 6.3058C30.2264 6.56095 30.2491 6.76791 30.6517 6.92667C30.8501 7.00605 30.9919 7.11661 31.0769 7.25836C31.1847 7.43981 31.1336 7.51918 30.9239 7.4965C30.3058 7.4398 29.8012 7.19883 29.41 6.77358C29.0981 6.42771 29.1435 6.13853 29.546 5.90606L34.7341 2.91229C34.8589 2.83858 34.9751 2.85275 35.0828 2.95481L35.8993 3.7798C35.9957 3.87052 35.9872 3.95557 35.8738 4.03495L31.4171 6.9862C31.3604 7.02589 31.3151 7.01455 31.2811 6.95218L31.1025 6.646C31.0061 6.48157 31.0429 6.35116 31.213 6.25477L34.7851 4.18804C34.8335 4.1614 34.8744 4.12329 34.9046 4.07668C34.9348 4.03008 34.9535 3.97625 34.9593 3.91941C34.9651 3.86257 34.9577 3.80427 34.9378 3.74906C34.918 3.69386 34.8861 3.64325 34.8447 3.6012ZM18.5235 17.2093C18.9573 23.0692 23.1843 27.3047 28.8826 28.3509C28.9683 28.3667 29.0457 28.4119 29.1015 28.4786C29.1574 28.5454 29.1883 28.6295 29.1888 28.7166V29.0058C29.1889 29.1082 29.1658 29.2092 29.1214 29.3015C29.077 29.3938 29.0123 29.4748 28.9321 29.5386C28.852 29.6023 28.7585 29.6472 28.6587 29.6698C28.5588 29.6924 28.4551 29.6922 28.3553 29.6692C22.0616 28.2828 17.639 23.7326 17.1542 17.3113C16.6779 10.89 20.3776 5.72746 26.3907 3.42259C26.4859 3.38575 26.5883 3.37085 26.6901 3.37897C26.7919 3.38709 26.8906 3.41803 26.9789 3.4695C27.0671 3.52097 27.1426 3.59164 27.1998 3.67628C27.257 3.76092 27.2944 3.85734 27.3092 3.95841L27.3602 4.23908C27.373 4.32519 27.3554 4.41307 27.3104 4.48758C27.2654 4.5621 27.1958 4.61858 27.1136 4.64732C21.6278 6.52693 18.0812 11.3493 18.5235 17.2093Z" fill="white"/>
<path d="M37.2012 4.19112L31.0886 8.36086C30.9606 8.44822 30.9276 8.62283 31.0149 8.75089L31.1108 8.89141C31.1981 9.01946 31.3727 9.05245 31.5008 8.9651L37.6134 4.79535C37.7415 4.708 37.7745 4.53338 37.6871 4.40533L37.5913 4.26481C37.5039 4.13676 37.3293 4.10377 37.2012 4.19112Z" fill="white"/>
<path d="M38.3255 5.30979L32.1667 9.6222C31.9782 9.75422 31.9323 10.0141 32.0644 10.2026L32.0936 10.2444C32.2256 10.433 32.4855 10.4788 32.674 10.3468L38.8328 6.03435C39.0213 5.90233 39.0672 5.64247 38.9351 5.45393L38.9059 5.41213C38.7739 5.22359 38.514 5.17777 38.3255 5.30979Z" fill="white"/>
<path d="M39.4499 6.64292L33.4103 11.1776C33.23 11.313 33.1935 11.5689 33.3289 11.7492L33.3596 11.79C33.4949 11.9703 33.7508 12.0067 33.9311 11.8713L39.9707 7.33666C40.151 7.20129 40.1875 6.94538 40.0521 6.76508L40.0214 6.72427C39.8861 6.54397 39.6302 6.50755 39.4499 6.64292Z" fill="white"/>
<path d="M8.8958 11.715L0.552355 8.6702C0.500628 8.65155 0.45318 8.62264 0.412746 8.58513C0.372313 8.54763 0.339692 8.50227 0.316765 8.45167C0.293838 8.40107 0.281058 8.34624 0.279161 8.29032C0.277263 8.23441 0.286285 8.17852 0.305708 8.12588L0.407769 7.84521C0.50416 7.57872 0.6856 7.49367 0.952092 7.59006L9.37208 10.6604C9.63857 10.7568 9.80017 10.6661 9.85687 10.3882C10.1064 9.14081 10.5146 8.08052 11.0816 7.20733C11.144 7.11094 11.229 7.08259 11.3367 7.12228L11.6599 7.24135C11.8697 7.32073 11.9293 7.46249 11.8385 7.66661C8.20689 15.8144 10.061 23.1458 15.8444 29.448C16.1903 29.8279 16.1506 30.0094 15.7254 29.9923C15.6516 29.9867 15.5552 29.998 15.4362 30.0264C15.2094 30.0831 15.0166 30.1908 14.8578 30.3496L8.65766 36.5497C8.49323 36.7142 8.32596 36.7142 8.15586 36.5497L7.91772 36.3031C7.87221 36.258 7.83608 36.2044 7.81142 36.1452C7.78676 36.0861 7.77407 36.0227 7.77407 35.9586C7.77407 35.8946 7.78676 35.8311 7.81142 35.772C7.83608 35.7129 7.87221 35.6593 7.91772 35.6142L14.1009 29.4225C14.339 29.19 14.3447 28.9519 14.1179 28.7081C12.1958 26.5932 10.8038 24.2486 9.94192 21.6744C9.83419 21.3399 9.61873 21.2378 9.29554 21.3682L0.54385 24.8043C0.469323 24.8324 0.386778 24.8303 0.313733 24.7986C0.240689 24.7668 0.182896 24.7078 0.152619 24.6342L0.0590629 24.4045C-0.0826878 24.0303 0.0307124 23.7723 0.399264 23.6306L8.98085 20.2626C9.04356 20.2372 9.09729 20.1937 9.13516 20.1377C9.17304 20.0816 9.19334 20.0155 9.19348 19.9479V12.1318C9.19323 12.04 9.16444 11.9506 9.1111 11.8759C9.05777 11.8012 8.98252 11.745 8.8958 11.715Z" fill="white"/>
<path d="M40.3911 8.09801L34.0289 13.0509C33.8621 13.1807 33.8321 13.4212 33.962 13.588L33.9829 13.6148C34.1127 13.7816 34.3532 13.8116 34.52 13.6817L40.8822 8.72887C41.049 8.59902 41.0789 8.35855 40.9491 8.19176L40.9282 8.16492C40.7983 7.99812 40.5579 7.96817 40.3911 8.09801Z" fill="white"/>
<path d="M48.4698 21.5298C48.4113 21.5038 48.3481 21.4902 48.2842 21.49C48.2204 21.4898 48.1574 21.5031 48.0995 21.5288C48.0416 21.5546 47.99 21.5922 47.9483 21.6393C47.9065 21.6864 47.8755 21.7419 47.8574 21.802C47.0012 24.5463 45.5639 26.888 43.5453 28.8271C43.4675 28.9027 43.4202 29.0043 43.4123 29.1125C43.4045 29.2207 43.4367 29.328 43.5028 29.414L48.7079 36.201C48.8667 36.4051 48.844 36.5837 48.6399 36.7368L48.3507 36.958C48.3078 36.9902 48.2593 37.0139 48.2078 37.0279C48.1564 37.042 48.1031 37.0459 48.051 37.0396C47.9989 37.0333 47.9489 37.0168 47.904 36.9911C47.8591 36.9654 47.8202 36.9311 47.7894 36.8899L42.2781 29.7032C42.0966 29.4707 42.0881 29.2326 42.2526 28.9887C42.8649 28.0872 43.8345 27.3898 44.4979 26.4542C48.1551 21.2945 48.9971 15.5791 47.0239 9.30807C47.0112 9.2661 47.0077 9.22189 47.0136 9.17843C47.0194 9.13497 47.0346 9.09329 47.058 9.05619C47.0814 9.0191 47.1124 8.98746 47.1491 8.96342C47.1858 8.93938 47.2272 8.92349 47.2705 8.91684L47.5257 8.88282C47.8092 8.84313 47.9906 8.95937 48.07 9.23153L48.5378 10.8985C48.6285 11.2274 48.844 11.3663 49.1842 11.3153L58.0294 10.0735C58.2846 10.0338 58.4122 10.1472 58.4122 10.4137V10.7199C58.4122 11.0034 58.2732 11.165 57.9954 11.2047L49.2182 12.4464C48.9404 12.4861 48.8015 12.6449 48.8015 12.9227V20.1435C48.8015 20.3249 48.8837 20.4497 49.0481 20.5177L56.5155 23.8432C56.8671 23.9963 56.9663 24.2486 56.8132 24.6001L56.7026 24.8468C56.6691 24.9216 56.6076 24.9804 56.5314 25.0105C56.4551 25.0407 56.3701 25.04 56.2944 25.0084L48.4698 21.5298Z" fill="white"/>
<path d="M41.2926 9.6599L35.0245 14.315C34.8397 14.4522 34.8011 14.7133 34.9384 14.898L34.9586 14.9254C35.0959 15.1101 35.3569 15.1487 35.5417 15.0115L41.8098 10.3564C41.9946 10.2191 42.0331 9.95809 41.8959 9.77331L41.8756 9.746C41.7384 9.56122 41.4773 9.52267 41.2926 9.6599Z" fill="white"/>
<path d="M41.9569 11.3748L35.8765 15.9401C35.6887 16.0811 35.6508 16.3477 35.7918 16.5355L35.8122 16.5627C35.9532 16.7505 36.2198 16.7885 36.4076 16.6474L42.488 12.0821C42.6758 11.9411 42.7138 11.6746 42.5727 11.4867L42.5523 11.4595C42.4113 11.2717 42.1447 11.2338 41.9569 11.3748Z" fill="white"/>
<path d="M42.5256 13.1629L37.2333 17.3575C37.0566 17.4976 37.0269 17.7543 37.167 17.931L37.1881 17.9577C37.3281 18.1344 37.5849 18.1641 37.7616 18.024L43.0539 13.8294C43.2306 13.6894 43.2603 13.4326 43.1203 13.2559L43.0991 13.2293C42.9591 13.0526 42.7023 13.0228 42.5256 13.1629Z" fill="white"/>
<path d="M43.3327 14.6972L38.4 19.0307C38.2412 19.1702 38.2256 19.412 38.3651 19.5708L38.4212 19.6347C38.5607 19.7935 38.8026 19.8091 38.9614 19.6696L43.8941 15.3361C44.0529 15.1966 44.0685 14.9548 43.929 14.796L43.8729 14.7321C43.7334 14.5733 43.4915 14.5577 43.3327 14.6972Z" fill="white"/>
<path d="M43.6674 17.0557L39.2858 20.4544C39.1855 20.5321 39.1673 20.6764 39.2451 20.7766L39.4953 21.0992C39.573 21.1994 39.7173 21.2176 39.8175 21.1399L44.1991 17.7411C44.2993 17.6634 44.3175 17.5192 44.2398 17.4189L43.9896 17.0964C43.9119 16.9962 43.7676 16.9779 43.6674 17.0557Z" fill="white"/>
<path d="M85.2835 11.6824C90.2562 11.6824 93.2951 14.7608 94.7948 17.3655L90.1378 20.1676C88.5986 18.1943 87.2568 17.2866 85.2835 17.2866C83.5865 17.2866 82.3236 18.2732 82.3236 19.6545C82.3236 21.0753 83.1129 21.7857 85.0862 22.4566L86.9411 23.1275C93.374 25.3771 95.5841 28.2186 95.5841 31.8889C95.5841 37.6509 90.1378 40.3741 85.4019 40.3741C80.3503 40.3741 76.4826 37.3747 75.1013 33.5465L79.9556 30.9418C80.9423 32.7177 82.4025 34.6515 85.4019 34.6515C87.4541 34.6515 88.9933 33.8228 88.9933 31.9679C88.9933 30.2708 88.0461 29.4815 85.0862 28.3765L83.5075 27.824C79.4426 26.3637 76.009 24.4299 76.009 19.3783C76.009 14.8792 80.2713 11.6824 85.2835 11.6824ZM111.568 18.9441C115.396 18.9441 119.303 21.5094 119.303 28.0213V39.7821H113.067V28.4554C113.067 25.3376 112.002 24.351 110.029 24.351C107.226 24.351 105.608 27.0741 105.214 28.2581V39.7821H98.9781V19.2599H105.214V22.8118C105.608 21.8251 107.7 18.9441 111.568 18.9441ZM137.852 19.2599H144.088V39.7821H137.852V37.7299C137.576 38.4403 135.721 40.1768 132.564 40.1768C127.867 40.1768 122.46 36.8222 122.46 29.4815C122.46 22.4171 127.867 18.9047 132.564 18.9047C135.721 18.9047 137.576 20.7201 137.852 21.1542V19.2599ZM133.471 34.691C136.037 34.691 138.128 32.915 138.128 29.4815C138.128 26.1664 136.037 24.3904 133.471 24.3904C130.788 24.3904 128.499 26.2059 128.499 29.4815C128.499 32.8756 130.788 34.691 133.471 34.691ZM159.637 18.9047C164.334 18.9047 169.74 22.4171 169.74 29.4815C169.74 36.8222 164.334 40.1768 159.637 40.1768C156.48 40.1768 154.625 38.4403 154.349 37.7299V47.2806H148.113V35.4014V19.2599H154.349V21.1542C154.625 20.7201 156.48 18.9047 159.637 18.9047ZM158.729 34.691C161.413 34.691 163.702 32.8756 163.702 29.4815C163.702 26.2059 161.413 24.3904 158.729 24.3904C156.164 24.3904 154.072 26.1664 154.072 29.4815C154.072 32.915 156.164 34.691 158.729 34.691ZM184.658 18.9047C189.355 18.9047 194.762 22.4171 194.762 29.4815C194.762 36.8222 189.355 40.1768 184.658 40.1768C181.501 40.1768 179.646 38.4403 179.37 37.7299V47.2806H173.134V35.4014V19.2599H179.37V21.1542C179.646 20.7201 181.501 18.9047 184.658 18.9047ZM183.751 34.691C186.434 34.691 188.723 32.8756 188.723 29.4815C188.723 26.2059 186.434 24.3904 183.751 24.3904C181.185 24.3904 179.094 26.1664 179.094 29.4815C179.094 32.915 181.185 34.691 183.751 34.691ZM207.706 11.6824C212.679 11.6824 215.718 14.7608 217.218 17.3655L212.561 20.1676C211.022 18.1943 209.68 17.2866 207.706 17.2866C206.009 17.2866 204.747 18.2732 204.747 19.6545C204.747 21.0753 205.536 21.7857 207.509 22.4566L209.364 23.1275C215.797 25.3771 218.007 28.2186 218.007 31.8889C218.007 37.6509 212.561 40.3741 207.825 40.3741C202.773 40.3741 198.906 37.3747 197.524 33.5465L202.379 30.9418C203.365 32.7177 204.825 34.6515 207.825 34.6515C209.877 34.6515 211.416 33.8228 211.416 31.9679C211.416 30.2708 210.469 29.4815 207.509 28.3765L205.931 27.824C201.866 26.3637 198.432 24.4299 198.432 19.3783C198.432 14.8792 202.694 11.6824 207.706 11.6824ZM233.991 18.9441C237.819 18.9441 241.726 21.5094 241.726 28.0213V39.7821H235.49V28.4554C235.49 25.3376 234.425 24.351 232.452 24.351C229.649 24.351 228.031 27.0741 227.637 28.2581V39.7821H221.401V11.8798H227.637V22.8118C228.031 21.8251 230.123 18.9441 233.991 18.9441ZM260.275 19.2599H266.511V39.7821H260.275V37.7299C259.999 38.4403 258.144 40.1768 254.987 40.1768C250.29 40.1768 244.883 36.8222 244.883 29.4815C244.883 22.4171 250.29 18.9047 254.987 18.9047C258.144 18.9047 259.999 20.7201 260.275 21.1542V19.2599ZM255.894 34.691C258.46 34.691 260.551 32.915 260.551 29.4815C260.551 26.1664 258.46 24.3904 255.894 24.3904C253.211 24.3904 250.922 26.2059 250.922 29.4815C250.922 32.8756 253.211 34.691 255.894 34.691ZM283.718 18.9441C284.27 18.9441 284.823 18.9441 285.336 19.0625V25.0219C284.862 24.9035 284.31 24.9035 283.915 24.9035C280.126 24.9035 277.087 27.6266 276.772 31.4153V39.7821H270.536V19.2599H276.772V24.272C277.719 21.1937 280.087 18.9441 283.718 18.9441ZM298.715 18.9047C303.372 18.9047 309.883 22.4171 308.581 31.6916H294.255C294.965 33.8228 296.82 34.9278 299.307 34.9278C301.832 34.9278 302.622 34.3753 304.043 33.7833L307.476 37.0984C305.661 38.8744 303.214 40.1768 299.07 40.1768C293.979 40.1768 287.901 36.6643 287.901 29.5999C287.901 22.4171 294.058 18.9047 298.715 18.9047ZM298.715 24.2326C296.939 24.2326 295.123 25.2587 294.334 27.3109H303.056C302.424 25.2587 300.491 24.2326 298.715 24.2326Z" fill="white"/>
</g>
<defs>
<clipPath id="clip0_43_2">
<rect width="308.75" height="58.6203" fill="white"/>
</clipPath>
</defs>
</svg>
